<mxfile host="app.diagrams.net" modified="2023-08-22T00:29:03.016Z" agent="Mozilla/5.0 (Windows NT 10.0; Win64; x64) AppleWebKit/537.36 (KHTML, like Gecko) Chrome/116.0.0.0 Safari/537.36" etag="ZpdyHB7wOmHRUW6wQi0f" version="21.6.8" type="github">
  <diagram name="PÃ¡gina-1" id="AEDmmLvPGWEeuCTnD38q">
    <mxGraphModel dx="934" dy="511" grid="1" gridSize="10" guides="1" tooltips="1" connect="1" arrows="1" fold="1" page="1" pageScale="1" pageWidth="827" pageHeight="1169" math="0" shadow="0">
      <root>
        <mxCell id="0" />
        <mxCell id="1" parent="0" />
        <mxCell id="oXNiCyKViO0I_4dubvpB-1" value="USER" style="shape=umlActor;verticalLabelPosition=bottom;verticalAlign=top;html=1;outlineConnect=0;" vertex="1" parent="1">
          <mxGeometry x="65" y="250" width="90" height="150" as="geometry" />
        </mxCell>
        <mxCell id="oXNiCyKViO0I_4dubvpB-3" value="&lt;font style=&quot;font-size: 13px;&quot;&gt;Interaction&lt;/font&gt;" style="text;html=1;strokeColor=none;fillColor=none;align=center;verticalAlign=middle;whiteSpace=wrap;rounded=0;" vertex="1" parent="1">
          <mxGeometry x="155" y="297.5" width="100" height="30" as="geometry" />
        </mxCell>
        <mxCell id="oXNiCyKViO0I_4dubvpB-4" value="&lt;span style=&quot;font-size: 18px;&quot;&gt;Ocean (Abstraction Layer)&lt;/span&gt;" style="rounded=1;whiteSpace=wrap;html=1;fillColor=#D4E1F5;fontColor=#ffffff;strokeColor=#005700;gradientColor=default;" vertex="1" parent="1">
          <mxGeometry x="255" y="310" width="206" height="50" as="geometry" />
        </mxCell>
        <mxCell id="oXNiCyKViO0I_4dubvpB-6" value="&lt;font style=&quot;font-size: 13px;&quot;&gt;Method Calls&lt;/font&gt;" style="text;html=1;strokeColor=none;fillColor=none;align=center;verticalAlign=middle;whiteSpace=wrap;rounded=0;" vertex="1" parent="1">
          <mxGeometry x="465" y="297.5" width="100" height="30" as="geometry" />
        </mxCell>
        <mxCell id="oXNiCyKViO0I_4dubvpB-7" value="" style="html=1;shadow=0;dashed=0;align=center;verticalAlign=middle;shape=mxgraph.arrows2.arrow;dy=0.67;dx=20;notch=0;fillColor=#f8cecc;strokeColor=#b85450;" vertex="1" parent="1">
          <mxGeometry x="170" y="327.5" width="70" height="15" as="geometry" />
        </mxCell>
        <mxCell id="oXNiCyKViO0I_4dubvpB-8" value="" style="html=1;shadow=0;dashed=0;align=center;verticalAlign=middle;shape=mxgraph.arrows2.arrow;dy=0.67;dx=20;notch=0;fillColor=#f8cecc;strokeColor=#b85450;" vertex="1" parent="1">
          <mxGeometry x="480" y="327.5" width="70" height="15" as="geometry" />
        </mxCell>
        <mxCell id="oXNiCyKViO0I_4dubvpB-9" value="&lt;font style=&quot;font-size: 15px;&quot;&gt;Evolving&amp;nbsp;Proteus&amp;nbsp;Contract&lt;/font&gt;" style="rounded=1;whiteSpace=wrap;html=1;fillColor=#D4E1F5;fontColor=#ffffff;strokeColor=#005700;gradientColor=default;" vertex="1" parent="1">
          <mxGeometry x="570" y="310" width="206" height="50" as="geometry" />
        </mxCell>
        <mxCell id="oXNiCyKViO0I_4dubvpB-15" value="" style="html=1;shadow=0;dashed=0;align=center;verticalAlign=middle;shape=mxgraph.arrows2.bendDoubleArrow;dy=15;dx=38;arrowHead=55;rounded=1;direction=west;fillColor=#f8cecc;strokeColor=#b85450;" vertex="1" parent="1">
          <mxGeometry x="480" y="380" width="230" height="170" as="geometry" />
        </mxCell>
        <mxCell id="oXNiCyKViO0I_4dubvpB-17" value="&lt;font style=&quot;font-size: 15px;&quot;&gt;swapGivenInputAmount&lt;/font&gt;" style="rounded=1;whiteSpace=wrap;html=1;fillColor=#D4E1F5;fontColor=#ffffff;strokeColor=#005700;gradientColor=default;" vertex="1" parent="1">
          <mxGeometry x="34" y="450" width="206" height="50" as="geometry" />
        </mxCell>
        <mxCell id="oXNiCyKViO0I_4dubvpB-18" value="&lt;font style=&quot;font-size: 15px;&quot;&gt;swapGivenOutputAmount&lt;/font&gt;" style="rounded=1;whiteSpace=wrap;html=1;fillColor=#D4E1F5;fontColor=#ffffff;strokeColor=#005700;gradientColor=default;" vertex="1" parent="1">
          <mxGeometry x="259" y="450" width="206" height="50" as="geometry" />
        </mxCell>
        <mxCell id="oXNiCyKViO0I_4dubvpB-19" value="&lt;font style=&quot;font-size: 15px;&quot;&gt;depositGivenInputAmount&lt;/font&gt;" style="rounded=1;whiteSpace=wrap;html=1;fillColor=#D4E1F5;fontColor=#ffffff;strokeColor=#005700;gradientColor=default;" vertex="1" parent="1">
          <mxGeometry x="34" y="510" width="206" height="50" as="geometry" />
        </mxCell>
        <mxCell id="oXNiCyKViO0I_4dubvpB-20" value="&lt;font style=&quot;font-size: 15px;&quot;&gt;depositGivenOutputAmount&lt;/font&gt;" style="rounded=1;whiteSpace=wrap;html=1;fillColor=#D4E1F5;fontColor=#ffffff;strokeColor=#005700;gradientColor=default;" vertex="1" parent="1">
          <mxGeometry x="260" y="510" width="206" height="50" as="geometry" />
        </mxCell>
        <mxCell id="oXNiCyKViO0I_4dubvpB-21" value="&lt;font style=&quot;font-size: 15px;&quot;&gt;withdrawGivenOutputAmount&lt;/font&gt;" style="rounded=1;whiteSpace=wrap;html=1;fillColor=#D4E1F5;fontColor=#ffffff;strokeColor=#005700;gradientColor=default;" vertex="1" parent="1">
          <mxGeometry x="34" y="570" width="206" height="50" as="geometry" />
        </mxCell>
        <mxCell id="oXNiCyKViO0I_4dubvpB-22" value="&lt;font style=&quot;font-size: 15px;&quot;&gt;withdrawGivenInputAmount&lt;/font&gt;" style="rounded=1;whiteSpace=wrap;html=1;fillColor=#D4E1F5;fontColor=#ffffff;strokeColor=#005700;gradientColor=default;" vertex="1" parent="1">
          <mxGeometry x="260" y="570" width="206" height="50" as="geometry" />
        </mxCell>
      </root>
    </mxGraphModel>
  </diagram>
</mxfile>
